HIERARCHY
ROOT Hips
{
 OFFSET 0.000000 0.000000 0.000000
 CHANNELS 6 Xposition Yposition Zposition Yrotation Xrotation Zrotation
 JOINT Chest
 {
  OFFSET 0.000000 11.395451 -0.039534
  CHANNELS 3 Yrotation Xrotation Zrotation
  JOINT Chest2
  {
   OFFSET 0.000000 9.398669 0.071813
   CHANNELS 3 Yrotation Xrotation Zrotation
   JOINT Chest3
   {
    OFFSET 0.000000 8.489801 0.000000
    CHANNELS 3 Yrotation Xrotation Zrotation
    JOINT Chest4
    {
     OFFSET 0.000000 8.489801 0.000000
     CHANNELS 3 Yrotation Xrotation Zrotation
     JOINT Neck
     {
      OFFSET 0.000000 12.404889 0.000000
      CHANNELS 3 Yrotation Xrotation Zrotation
      JOINT Head
      {
       OFFSET 0.000000 8.903270 0.092239
       CHANNELS 3 Yrotation Xrotation Zrotation
       End Site
       {
        OFFSET 0.000000 17.592497 0.007158
       }
      }
     }
     JOINT RightCollar
     {
      OFFSET -3.196775 6.966722 0.000000
      CHANNELS 3 Yrotation Xrotation Zrotation
      JOINT RightShoulder
      {
       OFFSET -15.955896 0.000000 0.000000
       CHANNELS 3 Yrotation Xrotation Zrotation
       JOINT RightElbow
       {
        OFFSET -24.792472 0.000000 0.000000
        CHANNELS 3 Yrotation Xrotation Zrotation
        JOINT RightWrist
        {
         OFFSET -20.900115 0.000000 0.025002
         CHANNELS 3 Yrotation Xrotation Zrotation
         End Site
         {
          OFFSET -16.056692 0.000000 0.000000
         }
        }
       }
      }
     }
     JOINT LeftCollar
     {
      OFFSET 3.196775 6.966722 0.000000
      CHANNELS 3 Yrotation Xrotation Zrotation
      JOINT LeftShoulder
      {
       OFFSET 15.955896 0.000000 0.000000
       CHANNELS 3 Yrotation Xrotation Zrotation
       JOINT LeftElbow
       {
        OFFSET 24.792472 0.000000 0.000000
        CHANNELS 3 Yrotation Xrotation Zrotation
        JOINT LeftWrist
        {
         OFFSET 20.900115 0.000000 0.025002
         CHANNELS 3 Yrotation Xrotation Zrotation
         End Site
         {
          OFFSET 16.056692 0.000000 0.000000
         }
        }
       }
      }
     }
    }
   }
  }
 }
 JOINT RightHip
 {
  OFFSET -9.568995 0.193718 0.019767
  CHANNELS 3 Yrotation Xrotation Zrotation
  JOINT RightKnee
  {
   OFFSET 0.000000 -56.649296 0.015402
   CHANNELS 3 Yrotation Xrotation Zrotation
   JOINT RightAnkle
   {
    OFFSET 0.000000 -41.365147 0.021264
    CHANNELS 3 Yrotation Xrotation Zrotation
    JOINT RightToe
    {
     OFFSET 0.000000 -7.465940 17.672538
     CHANNELS 3 Yrotation Xrotation Zrotation
     End Site
     {
      OFFSET 0.000000 -1.736315 7.837145
     }
    }
   }
  }
 }
 JOINT LeftHip
 {
  OFFSET 9.568995 0.193718 0.019767
  CHANNELS 3 Yrotation Xrotation Zrotation
  JOINT LeftKnee
  {
   OFFSET 0.000000 -56.649296 0.015402
   CHANNELS 3 Yrotation Xrotation Zrotation
   JOINT LeftAnkle
   {
    OFFSET 0.000000 -41.365147 0.021264
    CHANNELS 3 Yrotation Xrotation Zrotation
    JOINT LeftToe
    {
     OFFSET 0.000000 -7.465940 17.672538
     CHANNELS 3 Yrotation Xrotation Zrotation
     End Site
     {
      OFFSET 0.000000 -1.736315 7.837145
     }
    }
   }
  }
 }
}
MOTION
Frames: 12
Frame Time: 0.016667
67.766106 105.220119 86.752505 56.513123 -4.472431 -3.467494 -8.223766 7.320835 1.266194 -3.667352 3.230967 0.691546 -3.667352 3.230967 0.691546 -2.753448 2.419184 0.537952 -11.509864 15.544039 5.500410 -23.364539 -5.310215 14.281150 -0.454884 -3.702062 2.699239 -0.028496 -13.097528 48.594071 54.370530 -37.580124 33.453241 -12.917147 -10.572232 11.045783 14.233472 6.322186 -3.116779 -5.951274 -26.658356 -42.355910 -56.523984 -41.802606 -45.761457 21.847817 -11.449208 -10.822330 -9.574011 -1.116014 5.346110 -7.877888 20.079627 -2.257892 -9.348157 -12.887577 1.403136 0.004597 -1.497520 -0.351761 27.891068 -7.788741 16.972696 17.021556 16.291239 2.775613 16.832607 -11.366276 -5.874509 0.000000 0.000000 0.000000
67.602028 105.207426 87.585063 54.229572 -4.662160 -3.497212 -8.295856 7.307216 1.320406 -3.700152 3.223769 0.716496 -3.700139 3.223783 0.716500 -2.778149 2.413618 0.556795 -11.264767 15.713328 5.479558 -22.872164 -5.061736 14.126164 -0.328711 -3.947251 2.784218 0.061330 -13.132848 48.348953 54.496523 -37.283358 33.600582 -12.985481 -10.557499 10.922455 14.205133 6.247579 -3.111251 -5.718685 -26.360124 -42.325242 -55.995799 -41.507460 -45.835816 21.591879 -11.410781 -11.313243 -8.334166 -0.658854 5.889006 -8.222074 19.553224 -2.340883 -7.985306 -12.880400 0.801322 0.005582 -1.447137 -0.440528 26.927084 -7.406056 17.268469 13.826423 16.915882 2.969088 15.072416 -13.179021 -4.813806 -0.000000 -0.000000 -0.000000
67.409591 105.218571 88.379909 51.941028 -4.795290 -3.509589 -8.358811 7.300415 1.368008 -3.728824 3.219750 0.738484 -3.728814 3.219791 0.738488 -2.799767 2.410477 0.573409 -10.981155 15.823528 5.458625 -22.320952 -4.927959 13.972577 -0.220082 -4.258454 2.901894 0.050091 -13.222997 48.238346 54.643914 -36.907476 33.752965 -13.031497 -10.499166 10.796971 14.153725 6.191131 -3.097706 -5.438522 -26.106053 -42.341061 -55.406392 -41.231050 -45.926325 21.265969 -11.366872 -11.789663 -6.860265 -0.240848 6.383296 -9.330687 18.852690 -2.472370 -6.142208 -12.719370 0.061789 0.005682 -1.422142 -0.457009 25.949126 -7.192166 17.337126 9.535987 17.890464 3.065354 13.264526 -14.874377 -3.198391 0.000000 0.000000 0.000000
67.256786 105.229392 89.143238 49.617908 -4.893023 -3.477113 -8.383685 7.292801 1.413020 -3.740574 3.215411 0.758688 -3.740574 3.215411 0.758688 -2.808694 2.407028 0.588591 -10.703162 15.894822 5.421771 -21.783057 -4.866293 13.800491 -0.113328 -4.434050 2.987036 0.070681 -13.395082 48.202019 54.856508 -36.577017 33.784755 -13.066015 -10.427820 10.666538 14.094989 6.176274 -3.096034 -5.201173 -25.869388 -42.423093 -54.981033 -40.950983 -45.828089 20.929061 -11.332706 -12.258861 -5.573662 0.119686 6.859166 -9.539414 18.274539 -2.523654 -4.949899 -12.591722 -0.573726 0.005289 -1.390536 -0.435795 24.680216 -6.974414 17.256841 5.499174 19.136193 2.986756 11.332994 -16.268494 -1.495651 0.000000 0.000000 0.000000
67.182651 105.230666 89.881181 47.246330 -4.972587 -3.386585 -8.359813 7.286084 1.458594 -3.730682 3.211639 0.778401 -3.730672 3.211612 0.778402 -2.801364 2.404052 0.603299 -10.445521 15.920136 5.359630 -21.283317 -4.889125 13.598374 -0.004037 -4.359917 2.980991 0.181166 -13.680617 48.256984 55.179638 -36.340847 33.606292 -13.094095 -10.348969 10.528034 14.034681 6.234395 -3.118864 -5.058765 -25.636044 -42.588419 -54.858239 -40.645264 -45.396240 20.604283 -11.326057 -12.729862 -4.655954 0.416363 7.342893 -7.897925 18.017797 -2.471364 -5.116672 -12.621768 -0.939175 0.004834 -1.342175 -0.412799 23.036913 -6.696691 17.063514 1.990988 20.654926 2.611610 8.993805 -17.408605 0.247900 0.000000 -0.000000 0.000000
67.148146 105.231615 90.587608 44.840356 -5.010891 -3.254810 -8.297763 7.278016 1.501645 -3.703815 3.207541 0.796385 -3.703798 3.207549 0.796388 -2.781301 2.400951 0.616620 -10.191081 15.904928 5.285755 -20.792548 -4.986685 13.383581 0.100151 -4.157142 2.922526 0.321205 -14.037775 48.395651 55.563294 -36.152296 33.311413 -13.109521 -10.257891 10.385090 13.964894 6.331769 -3.159811 -4.960366 -25.430738 -42.818280 -54.884150 -40.319895 -44.780371 20.267041 -11.332633 -13.193898 -3.927423 0.666307 7.805404 -5.372861 17.906441 -2.381461 -5.930314 -12.710747 -1.206874 0.003954 -1.287220 -0.352018 21.099969 -6.446063 16.716570 -1.303382 22.382581 1.945954 6.557926 -18.251751 2.004113 0.000000 0.000000 0.000000
67.104146 105.235742 91.250314 42.412633 -4.968047 -3.100588 -8.200397 7.254884 1.537952 -3.661202 3.196930 0.810546 -3.661202 3.196930 0.810546 -2.749438 2.392950 0.626948 -9.938144 15.887598 5.215523 -20.305722 -5.085441 13.175590 0.197966 -3.976655 2.889182 0.447624 -14.390712 48.519370 55.901679 -35.990422 33.050352 -13.108211 -10.169965 10.244012 13.882274 6.393691 -3.207091 -4.841271 -25.284330 -43.078389 -54.848190 -39.996627 -44.215725 19.905073 -11.321944 -13.632522 -3.267477 0.891082 8.190301 -3.189241 17.677464 -2.300565 -6.383991 -12.731665 -1.654784 0.001926 -1.224055 -0.180328 18.841115 -6.267595 16.168943 -3.872912 24.145730 1.251466 4.908402 -18.789327 3.193984 0.000000 0.000000 0.000000
67.022722 105.248329 91.854456 39.959801 -4.808580 -2.939035 -8.061184 7.204188 1.568555 -3.599903 3.174290 0.821061 -3.599925 3.174259 0.821060 -2.703540 2.375941 0.634380 -9.685497 15.883817 5.157096 -19.820754 -5.155564 12.986168 0.287336 -3.883870 2.923170 0.541641 -14.698843 48.581253 56.141554 -35.854539 32.896019 -13.084255 -10.094883 10.098508 13.782711 6.382057 -3.254479 -4.672316 -25.231783 -43.361792 -54.609613 -39.700584 -43.837358 19.520521 -11.270187 -14.060911 -2.675608 1.111361 8.465191 -1.955078 17.122327 -2.229065 -5.929669 -12.582457 -2.512968 -0.002013 -1.147468 0.200740 16.053060 -6.165153 15.378522 -5.494887 25.966048 0.677764 4.673049 -19.216691 3.287332 0.000000 0.000000 0.000000
66.931801 105.264094 92.414877 37.487044 -4.565882 -2.766953 -7.886503 7.137495 1.593808 -3.522709 3.144857 0.828438 -3.522726 3.144844 0.828439 -2.645664 2.353949 0.639344 -9.434758 15.878004 5.101503 -19.340370 -5.227459 12.802588 0.371978 -3.809204 2.986965 0.622884 -15.006937 48.625958 56.333635 -35.741445 32.773298 -13.044307 -10.024692 9.955383 13.672426 6.334558 -3.302490 -4.482410 -25.238670 -43.667794 -54.319690 -39.414597 -43.504658 19.115310 -11.201798 -14.464865 -2.153514 1.300567 8.661558 -1.056055 16.438344 -2.148565 -5.117209 -12.359866 -3.548186 -0.006407 -1.059847 0.692172 12.935337 -6.207064 14.420765 -6.360309 27.850388 0.127135 5.259029 -19.641943 2.701121 0.000000 0.000000 0.000000
66.866045 105.270698 92.963912 35.019682 -4.304122 -2.573990 -7.698641 7.076816 1.608173 -3.439479 3.118331 0.830929 -3.439479 3.118331 0.830929 -2.583221 2.334166 0.640632 -9.189482 15.861727 5.036873 -18.868643 -5.318092 12.605646 0.461123 -3.698480 3.043774 0.706207 -15.370561 48.691786 56.529779 -35.625816 32.608598 -13.004200 -9.948426 9.840362 13.564455 6.291330 -3.347366 -4.293558 -25.227331 -43.974068 -54.207595 -39.097644 -43.039081 18.677875 -11.159041 -14.780694 -1.583967 1.405742 8.821744 0.112566 15.961582 -2.094596 -4.583036 -12.238885 -4.350741 -0.009101 -0.973668 1.071092 10.073695 -6.510098 13.442194 -6.526068 29.650462 -0.370381 5.721641 -19.946638 2.257403 0.000000 -0.000000 -0.000000
66.842238 105.258802 93.506623 32.563589 -4.035025 -2.340935 -7.504902 7.026562 1.601816 -3.353368 3.096776 0.824354 -3.353371 3.096770 0.824354 -2.518602 2.318140 0.635143 -8.947420 15.830969 4.964768 -18.402361 -5.434944 12.398069 0.561272 -3.513058 3.073257 0.796452 -15.825212 48.811373 56.758368 -35.501449 32.357275 -12.966093 -9.859976 9.779340 13.459609 6.273267 -3.394320 -4.137942 -25.153726 -44.262442 -54.420810 -38.701610 -42.289161 18.153148 -11.175089 -14.955231 -0.904000 1.365121 8.975259 1.972021 15.895873 -2.109282 -4.768651 -12.328676 -4.694766 -0.009557 -0.889250 1.231908 7.550357 -7.112443 12.532378 -5.595403 31.409167 -0.645751 5.709154 -20.030333 2.256946 0.000000 -0.000000 -0.000000
66.843594 105.237745 94.037948 30.113484 -3.743006 -2.088661 -7.298260 6.980943 1.583328 -3.261361 3.077532 0.812322 -3.261370 3.077533 0.812325 -2.449543 2.303898 0.625557 -8.710462 15.788918 4.884378 -17.944038 -5.572116 12.178346 0.664891 -3.292878 3.091191 0.888167 -16.332690 48.957596 56.993479 -35.374822 32.062983 -12.929059 -9.766751 9.746762 13.356485 6.259691 -3.439358 -3.984271 -25.061458 -44.554536 -54.792773 -38.252553 -41.415317 17.598190 -11.219430 -15.037385 -0.177635 1.239204 9.101259 4.096653 16.042515 -2.157794 -5.231079 -12.523482 -4.808798 -0.009040 -0.809022 1.280693 5.289523 -7.962090 11.653402 -3.866846 33.100448 -0.649318 5.580116 -19.944321 2.352303 0.000000 -0.000000 -0.000000
